<svg width="732" height="233" viewBox="0 0 732 233" fill="none" xmlns="http://www.w3.org/2000/svg">
<g clip-path="url(#clip0_4819_611)">
<g filter="url(#filter0_ii_4819_611)">
<g clip-path="url(#clip1_4819_611)">
<rect x="1.88574" y="24.6108" width="200" height="200" rx="72" fill="#F4F4F4"/>
<g filter="url(#filter1_f_4819_611)">
<ellipse cx="45.9635" cy="84.7507" rx="45.9635" ry="84.7507" transform="matrix(-0.830673 0.556761 0.556761 0.830673 44.2471 73.6108)" fill="#5DFF00"/>
</g>
</g>
</g>
<g filter="url(#filter2_ii_4819_611)">
<g clip-path="url(#clip2_4819_611)">
<rect x="1.88574" y="10.6108" width="200" height="200" rx="72" fill="#F4F4F4"/>
<g filter="url(#filter3_f_4819_611)">
<path d="M162.495 103.396C162.495 172.984 200.69 229.396 131.421 229.396C62.153 229.396 6 172.984 6 103.396C6 33.8081 62.153 -22.604 131.421 -22.604C200.69 -22.604 162.495 33.8081 162.495 103.396Z" fill="#42B600"/>
</g>
<g filter="url(#filter4_f_4819_611)">
<circle cx="47" cy="151.396" r="113" fill="#A8FF76"/>
</g>
<g filter="url(#filter5_f_4819_611)">
<path d="M65 157.896C65 207.878 140.196 248.396 232.954 248.396C325.713 248.396 215.047 207.878 215.047 157.896C215.047 107.914 325.713 67.396 232.954 67.396C140.196 67.396 65 107.914 65 157.896Z" fill="#FFEDBF"/>
</g>
<g filter="url(#filter6_d_4819_611)">
<path d="M130.311 101.676C128.686 101.156 127.034 100.729 125.361 100.396C127.034 100.063 128.686 99.6354 130.311 99.116C133.694 98.3556 136.859 96.5769 139.468 93.9689C146.01 87.4282 146.874 77.6492 141.393 72.1701C139.401 70.1781 136.732 68.9467 133.775 68.6319C133.46 65.6757 132.228 63.0078 130.235 61.0159C127.542 58.3237 123.763 57.0651 119.592 57.4705C115.527 57.8663 111.562 59.8089 108.429 62.941C105.82 65.5491 104.041 68.7131 103.28 72.0949C102.761 73.7186 102.333 75.3704 102 77.0424C101.667 75.3704 101.239 73.7186 100.72 72.0949C99.9592 68.7131 98.1799 65.5491 95.5708 62.941C92.4378 59.8089 88.4736 57.8663 84.4078 57.4705C80.2384 57.0651 76.4577 58.3235 73.7645 61.0163C71.7721 63.0078 70.5401 65.6745 70.2253 68.6319C67.2681 68.9467 64.5993 70.1781 62.6065 72.1701C57.1256 77.6492 57.9896 87.4282 64.5323 93.9689C67.1412 96.5769 70.3063 98.3556 73.6891 99.116C75.3136 99.6354 76.9661 100.063 78.6388 100.396C76.9661 100.729 75.3136 101.156 73.6891 101.676C70.3063 102.436 67.1412 104.215 64.5323 106.823C57.9896 113.364 57.1256 123.143 62.6071 128.622C64.5997 130.614 67.2681 131.845 70.2258 132.16C70.5407 135.116 71.7727 137.784 73.7651 139.776C76.4582 142.468 80.2377 143.727 84.4083 143.321C88.4738 142.926 92.4375 140.983 95.5713 137.851C98.1804 135.243 99.9597 132.079 100.72 128.697C101.24 127.073 101.667 125.421 102 123.749C102.333 125.421 102.761 127.073 103.28 128.697C104.041 132.079 105.82 135.243 108.429 137.851C111.562 140.983 115.526 142.926 119.592 143.321C120.105 143.371 120.612 143.396 121.111 143.396C124.675 143.396 127.874 142.137 130.235 139.776C132.228 137.784 133.46 135.117 133.775 132.16C136.732 131.845 139.401 130.614 141.393 128.622C146.874 123.143 146.01 113.364 139.468 106.823C136.859 104.215 133.694 102.436 130.311 101.676V101.676Z" fill="url(#paint0_linear_4819_611)"/>
</g>
<g filter="url(#filter7_ddiii_4819_611)">
<path d="M136.207 101.944C134.243 101.316 132.246 100.799 130.224 100.396C132.246 99.993 134.243 99.4762 136.207 98.8481C140.297 97.9286 144.123 95.7776 147.277 92.6236C155.186 84.714 156.231 72.8883 149.605 66.2624C147.196 63.8534 143.97 62.3643 140.395 61.9836C140.014 58.4087 138.525 55.1824 136.116 52.7736C132.861 49.5178 128.292 47.9958 123.25 48.4861C118.335 48.9647 113.542 51.314 109.755 55.1016C106.601 58.2555 104.45 62.0817 103.53 66.1714C102.902 68.135 102.385 70.1325 101.982 72.1545C101.58 70.1325 101.063 68.135 100.435 66.1714C99.5153 62.0817 97.3643 58.2555 94.2102 55.1016C90.4228 51.314 85.6305 48.9647 80.7153 48.4861C75.6749 47.9958 71.1045 49.5176 67.8487 52.774C65.4401 55.1824 63.9508 58.4072 63.5701 61.9836C59.9953 62.3643 56.769 63.8534 54.3599 66.2624C47.734 72.8883 48.7786 84.714 56.6879 92.6236C59.8419 95.7776 63.6681 97.9286 67.7575 98.8481C69.7214 99.4762 71.7191 99.993 73.7412 100.396C71.7191 100.799 69.7214 101.316 67.7575 101.944C63.6681 102.863 59.8419 105.014 56.6879 108.168C48.7786 116.078 47.734 127.903 54.3606 134.529C56.7694 136.938 59.9953 138.427 63.5708 138.808C63.9515 142.383 65.4408 145.609 67.8494 148.018C71.1051 151.274 75.6741 152.797 80.716 152.306C85.6307 151.827 90.4223 149.478 94.2108 145.69C97.365 142.536 99.516 138.71 100.435 134.621C101.063 132.657 101.58 130.659 101.982 128.637C102.385 130.659 102.902 132.657 103.53 134.621C104.45 138.71 106.601 142.536 109.755 145.69C113.542 149.478 118.334 151.827 123.25 152.306C123.87 152.366 124.482 152.396 125.086 152.396C129.394 152.396 133.261 150.874 136.116 148.018C138.525 145.609 140.014 142.384 140.395 138.808C143.97 138.427 147.196 136.938 149.605 134.529C156.231 127.903 155.186 116.078 147.277 108.168C144.123 105.014 140.297 102.863 136.207 101.944V101.944Z" fill="url(#paint1_linear_4819_611)"/>
<path d="M136.207 101.944C134.243 101.316 132.246 100.799 130.224 100.396C132.246 99.993 134.243 99.4762 136.207 98.8481C140.297 97.9286 144.123 95.7776 147.277 92.6236C155.186 84.714 156.231 72.8883 149.605 66.2624C147.196 63.8534 143.97 62.3643 140.395 61.9836C140.014 58.4087 138.525 55.1824 136.116 52.7736C132.861 49.5178 128.292 47.9958 123.25 48.4861C118.335 48.9647 113.542 51.314 109.755 55.1016C106.601 58.2555 104.45 62.0817 103.53 66.1714C102.902 68.135 102.385 70.1325 101.982 72.1545C101.58 70.1325 101.063 68.135 100.435 66.1714C99.5153 62.0817 97.3643 58.2555 94.2102 55.1016C90.4228 51.314 85.6305 48.9647 80.7153 48.4861C75.6749 47.9958 71.1045 49.5176 67.8487 52.774C65.4401 55.1824 63.9508 58.4072 63.5701 61.9836C59.9953 62.3643 56.769 63.8534 54.3599 66.2624C47.734 72.8883 48.7786 84.714 56.6879 92.6236C59.8419 95.7776 63.6681 97.9286 67.7575 98.8481C69.7214 99.4762 71.7191 99.993 73.7412 100.396C71.7191 100.799 69.7214 101.316 67.7575 101.944C63.6681 102.863 59.8419 105.014 56.6879 108.168C48.7786 116.078 47.734 127.903 54.3606 134.529C56.7694 136.938 59.9953 138.427 63.5708 138.808C63.9515 142.383 65.4408 145.609 67.8494 148.018C71.1051 151.274 75.6741 152.797 80.716 152.306C85.6307 151.827 90.4223 149.478 94.2108 145.69C97.365 142.536 99.516 138.71 100.435 134.621C101.063 132.657 101.58 130.659 101.982 128.637C102.385 130.659 102.902 132.657 103.53 134.621C104.45 138.71 106.601 142.536 109.755 145.69C113.542 149.478 118.334 151.827 123.25 152.306C123.87 152.366 124.482 152.396 125.086 152.396C129.394 152.396 133.261 150.874 136.116 148.018C138.525 145.609 140.014 142.384 140.395 138.808C143.97 138.427 147.196 136.938 149.605 134.529C156.231 127.903 155.186 116.078 147.277 108.168C144.123 105.014 140.297 102.863 136.207 101.944V101.944Z" fill="url(#paint2_radial_4819_611)"/>
</g>
<g filter="url(#filter8_f_4819_611)">
<ellipse cx="128.741" cy="92.727" rx="4.72015" ry="16.1367" transform="rotate(68.3913 128.741 92.727)" fill="white"/>
</g>
<g filter="url(#filter9_f_4819_611)">
<ellipse cx="88.8976" cy="136.432" rx="4.72015" ry="16.1367" transform="rotate(33.7935 88.8976 136.432)" fill="white"/>
</g>
<g filter="url(#filter10_f_4819_611)">
<ellipse cx="89.904" cy="63.852" rx="4.72015" ry="16.1367" transform="rotate(140.517 89.904 63.852)" fill="white"/>
</g>
</g>
</g>
<path d="M273.273 164.364C266.121 164.364 259.97 162.848 254.818 159.818C249.697 156.758 245.758 152.515 243 147.091C240.273 141.667 238.909 135.424 238.909 128.364C238.909 121.212 240.288 114.939 243.045 109.545C245.833 104.121 249.788 99.8939 254.909 96.8636C260.03 93.803 266.121 92.2727 273.182 92.2727C279.273 92.2727 284.606 93.3788 289.182 95.5909C293.758 97.803 297.379 100.909 300.045 104.909C302.712 108.909 304.182 113.606 304.455 119H286.182C285.667 115.515 284.303 112.712 282.091 110.591C279.909 108.439 277.045 107.364 273.5 107.364C270.5 107.364 267.879 108.182 265.636 109.818C263.424 111.424 261.697 113.773 260.455 116.864C259.212 119.955 258.591 123.697 258.591 128.091C258.591 132.545 259.197 136.333 260.409 139.455C261.652 142.576 263.394 144.955 265.636 146.591C267.879 148.227 270.5 149.045 273.5 149.045C275.712 149.045 277.697 148.591 279.455 147.682C281.242 146.773 282.712 145.455 283.864 143.727C285.045 141.97 285.818 139.864 286.182 137.409H304.455C304.152 142.742 302.697 147.439 300.091 151.5C297.515 155.53 293.955 158.682 289.409 160.955C284.864 163.227 279.485 164.364 273.273 164.364ZM336.216 69.9091V163H316.852V69.9091H336.216ZM383.273 164.364C376.212 164.364 370.106 162.864 364.955 159.864C359.833 156.833 355.879 152.621 353.091 147.227C350.303 141.803 348.909 135.515 348.909 128.364C348.909 121.152 350.303 114.848 353.091 109.455C355.879 104.03 359.833 99.8182 364.955 96.8182C370.106 93.7879 376.212 92.2727 383.273 92.2727C390.333 92.2727 396.424 93.7879 401.545 96.8182C406.697 99.8182 410.667 104.03 413.455 109.455C416.242 114.848 417.636 121.152 417.636 128.364C417.636 135.515 416.242 141.803 413.455 147.227C410.667 152.621 406.697 156.833 401.545 159.864C396.424 162.864 390.333 164.364 383.273 164.364ZM383.364 149.364C386.576 149.364 389.258 148.455 391.409 146.636C393.561 144.788 395.182 142.273 396.273 139.091C397.394 135.909 397.955 132.288 397.955 128.227C397.955 124.167 397.394 120.545 396.273 117.364C395.182 114.182 393.561 111.667 391.409 109.818C389.258 107.97 386.576 107.045 383.364 107.045C380.121 107.045 377.394 107.97 375.182 109.818C373 111.667 371.348 114.182 370.227 117.364C369.136 120.545 368.591 124.167 368.591 128.227C368.591 132.288 369.136 135.909 370.227 139.091C371.348 142.273 373 144.788 375.182 146.636C377.394 148.455 380.121 149.364 383.364 149.364ZM493.068 93.1818L468.659 163H446.841L422.432 93.1818H442.886L457.386 143.136H458.114L472.568 93.1818H493.068ZM532.545 164.364C525.364 164.364 519.182 162.909 514 160C508.848 157.061 504.879 152.909 502.091 147.545C499.303 142.152 497.909 135.773 497.909 128.409C497.909 121.227 499.303 114.924 502.091 109.5C504.879 104.076 508.803 99.8485 513.864 96.8182C518.955 93.7879 524.924 92.2727 531.773 92.2727C536.379 92.2727 540.667 93.0152 544.636 94.5C548.636 95.9545 552.121 98.1515 555.091 101.091C558.091 104.03 560.424 107.727 562.091 112.182C563.758 116.606 564.591 121.788 564.591 127.727V133.045H505.636V121.045H546.364C546.364 118.258 545.758 115.788 544.545 113.636C543.333 111.485 541.652 109.803 539.5 108.591C537.379 107.348 534.909 106.727 532.091 106.727C529.152 106.727 526.545 107.409 524.273 108.773C522.03 110.106 520.273 111.909 519 114.182C517.727 116.424 517.076 118.924 517.045 121.682V133.091C517.045 136.545 517.682 139.53 518.955 142.045C520.258 144.561 522.091 146.5 524.455 147.864C526.818 149.227 529.621 149.909 532.864 149.909C535.015 149.909 536.985 149.606 538.773 149C540.561 148.394 542.091 147.485 543.364 146.273C544.636 145.061 545.606 143.576 546.273 141.818L564.182 143C563.273 147.303 561.409 151.061 558.591 154.273C555.803 157.455 552.197 159.939 547.773 161.727C543.379 163.485 538.303 164.364 532.545 164.364ZM577.227 163V93.1818H596V105.364H596.727C598 101.03 600.136 97.7576 603.136 95.5455C606.136 93.303 609.591 92.1818 613.5 92.1818C614.47 92.1818 615.515 92.2424 616.636 92.3636C617.758 92.4848 618.742 92.6515 619.591 92.8636V110.045C618.682 109.773 617.424 109.53 615.818 109.318C614.212 109.106 612.742 109 611.409 109C608.561 109 606.015 109.621 603.773 110.864C601.561 112.076 599.803 113.773 598.5 115.955C597.227 118.136 596.591 120.652 596.591 123.5V163H577.227ZM648.966 69.9091V163H629.602V69.9091H648.966ZM676.432 189.182C673.977 189.182 671.674 188.985 669.523 188.591C667.402 188.227 665.644 187.758 664.25 187.182L668.614 172.727C670.886 173.424 672.932 173.803 674.75 173.864C676.598 173.924 678.189 173.5 679.523 172.591C680.886 171.682 681.992 170.136 682.841 167.955L683.977 165L658.932 93.1818H679.295L693.75 144.455H694.477L709.068 93.1818H729.568L702.432 170.545C701.129 174.303 699.356 177.576 697.114 180.364C694.902 183.182 692.098 185.348 688.705 186.864C685.311 188.409 681.22 189.182 676.432 189.182Z" fill="white"/>
</g>
<defs>
<filter id="filter0_ii_4819_611" x="-1.11426" y="20.6108" width="206" height="204" filterUnits="userSpaceOnUse" color-interpolation-filters="sRGB">
<feFlood flood-opacity="0" result="BackgroundImageFix"/>
<feBlend mode="normal" in="SourceGraphic" in2="BackgroundImageFix" result="shape"/>
<feColorMatrix in="SourceAlpha" type="matrix" values="0 0 0 0 0 0 0 0 0 0 0 0 0 0 0 0 0 0 127 0" result="hardAlpha"/>
<feOffset dx="-3" dy="-4"/>
<feGaussianBlur stdDeviation="9"/>
<feComposite in2="hardAlpha" operator="arithmetic" k2="-1" k3="1"/>
<feColorMatrix type="matrix" values="0 0 0 0 1 0 0 0 0 0.76425 0 0 0 0 0.4875 0 0 0 0.39 0"/>
<feBlend mode="normal" in2="shape" result="effect1_innerShadow_4819_611"/>
<feColorMatrix in="SourceAlpha" type="matrix" values="0 0 0 0 0 0 0 0 0 0 0 0 0 0 0 0 0 0 127 0" result="hardAlpha"/>
<feOffset dx="3" dy="-2"/>
<feGaussianBlur stdDeviation="6"/>
<feComposite in2="hardAlpha" operator="arithmetic" k2="-1" k3="1"/>
<feColorMatrix type="matrix" values="0 0 0 0 1 0 0 0 0 1 0 0 0 0 1 0 0 0 1 0"/>
<feBlend mode="normal" in2="effect1_innerShadow_4819_611" result="effect2_innerShadow_4819_611"/>
</filter>
<filter id="filter1_f_4819_611" x="-107.448" y="-5.32568" width="321.4" height="349.855" filterUnits="userSpaceOnUse" color-interpolation-filters="sRGB">
<feFlood flood-opacity="0" result="BackgroundImageFix"/>
<feBlend mode="normal" in="SourceGraphic" in2="BackgroundImageFix" result="shape"/>
<feGaussianBlur stdDeviation="50" result="effect1_foregroundBlur_4819_611"/>
</filter>
<filter id="filter2_ii_4819_611" x="-1.11426" y="6.61084" width="216" height="208" filterUnits="userSpaceOnUse" color-interpolation-filters="sRGB">
<feFlood flood-opacity="0" result="BackgroundImageFix"/>
<feBlend mode="normal" in="SourceGraphic" in2="BackgroundImageFix" result="shape"/>
<feColorMatrix in="SourceAlpha" type="matrix" values="0 0 0 0 0 0 0 0 0 0 0 0 0 0 0 0 0 0 127 0" result="hardAlpha"/>
<feOffset dx="13" dy="4"/>
<feGaussianBlur stdDeviation="10"/>
<feComposite in2="hardAlpha" operator="arithmetic" k2="-1" k3="1"/>
<feColorMatrix type="matrix" values="0 0 0 0 1 0 0 0 0 1 0 0 0 0 1 0 0 0 0.6 0"/>
<feBlend mode="normal" in2="shape" result="effect1_innerShadow_4819_611"/>
<feColorMatrix in="SourceAlpha" type="matrix" values="0 0 0 0 0 0 0 0 0 0 0 0 0 0 0 0 0 0 127 0" result="hardAlpha"/>
<feOffset dx="-3" dy="-4"/>
<feGaussianBlur stdDeviation="9"/>
<feComposite in2="hardAlpha" operator="arithmetic" k2="-1" k3="1"/>
<feColorMatrix type="matrix" values="0 0 0 0 1 0 0 0 0 1 0 0 0 0 1 0 0 0 0.78 0"/>
<feBlend mode="normal" in2="effect1_innerShadow_4819_611" result="effect2_innerShadow_4819_611"/>
</filter>
<filter id="filter3_f_4819_611" x="-84" y="-112.604" width="347" height="432" filterUnits="userSpaceOnUse" color-interpolation-filters="sRGB">
<feFlood flood-opacity="0" result="BackgroundImageFix"/>
<feBlend mode="normal" in="SourceGraphic" in2="BackgroundImageFix" result="shape"/>
<feGaussianBlur stdDeviation="45" result="effect1_foregroundBlur_4819_611"/>
</filter>
<filter id="filter4_f_4819_611" x="-156" y="-51.604" width="406" height="406" filterUnits="userSpaceOnUse" color-interpolation-filters="sRGB">
<feFlood flood-opacity="0" result="BackgroundImageFix"/>
<feBlend mode="normal" in="SourceGraphic" in2="BackgroundImageFix" result="shape"/>
<feGaussianBlur stdDeviation="45" result="effect1_foregroundBlur_4819_611"/>
</filter>
<filter id="filter5_f_4819_611" x="-35" y="-32.604" width="405" height="381" filterUnits="userSpaceOnUse" color-interpolation-filters="sRGB">
<feFlood flood-opacity="0" result="BackgroundImageFix"/>
<feBlend mode="normal" in="SourceGraphic" in2="BackgroundImageFix" result="shape"/>
<feGaussianBlur stdDeviation="50" result="effect1_foregroundBlur_4819_611"/>
</filter>
<filter id="filter6_d_4819_611" x="35" y="57.396" width="134" height="146" filterUnits="userSpaceOnUse" color-interpolation-filters="sRGB">
<feFlood flood-opacity="0" result="BackgroundImageFix"/>
<feColorMatrix in="SourceAlpha" type="matrix" values="0 0 0 0 0 0 0 0 0 0 0 0 0 0 0 0 0 0 127 0" result="hardAlpha"/>
<feOffset dy="36"/>
<feGaussianBlur stdDeviation="12"/>
<feComposite in2="hardAlpha" operator="out"/>
<feColorMatrix type="matrix" values="0 0 0 0 0.357805 0 0 0 0 0.7125 0 0 0 0 0.139531 0 0 0 0.59 0"/>
<feBlend mode="normal" in2="BackgroundImageFix" result="effect1_dropShadow_4819_611"/>
<feBlend mode="normal" in="SourceGraphic" in2="effect1_dropShadow_4819_611" result="shape"/>
</filter>
<filter id="filter7_ddiii_4819_611" x="1" y="-0.604004" width="201.965" height="202" filterUnits="userSpaceOnUse" color-interpolation-filters="sRGB">
<feFlood flood-opacity="0" result="BackgroundImageFix"/>
<feColorMatrix in="SourceAlpha" type="matrix" values="0 0 0 0 0 0 0 0 0 0 0 0 0 0 0 0 0 0 127 0" result="hardAlpha"/>
<feOffset/>
<feGaussianBlur stdDeviation="24.5"/>
<feComposite in2="hardAlpha" operator="out"/>
<feColorMatrix type="matrix" values="0 0 0 0 0.356863 0 0 0 0 0.713726 0 0 0 0 0.141176 0 0 0 1 0"/>
<feBlend mode="normal" in2="BackgroundImageFix" result="effect1_dropShadow_4819_611"/>
<feColorMatrix in="SourceAlpha" type="matrix" values="0 0 0 0 0 0 0 0 0 0 0 0 0 0 0 0 0 0 127 0" result="hardAlpha"/>
<feOffset/>
<feGaussianBlur stdDeviation="2"/>
<feComposite in2="hardAlpha" operator="out"/>
<feColorMatrix type="matrix" values="0 0 0 0 0.356863 0 0 0 0 0.713726 0 0 0 0 0.141176 0 0 0 1 0"/>
<feBlend mode="normal" in2="effect1_dropShadow_4819_611" result="effect2_dropShadow_4819_611"/>
<feBlend mode="normal" in="SourceGraphic" in2="effect2_dropShadow_4819_611" result="shape"/>
<feColorMatrix in="SourceAlpha" type="matrix" values="0 0 0 0 0 0 0 0 0 0 0 0 0 0 0 0 0 0 127 0" result="hardAlpha"/>
<feOffset dx="1" dy="-7"/>
<feGaussianBlur stdDeviation="10"/>
<feComposite in2="hardAlpha" operator="arithmetic" k2="-1" k3="1"/>
<feColorMatrix type="matrix" values="0 0 0 0 1 0 0 0 0 1 0 0 0 0 1 0 0 0 1 0"/>
<feBlend mode="normal" in2="shape" result="effect3_innerShadow_4819_611"/>
<feColorMatrix in="SourceAlpha" type="matrix" values="0 0 0 0 0 0 0 0 0 0 0 0 0 0 0 0 0 0 127 0" result="hardAlpha"/>
<feOffset dx="1" dy="23"/>
<feGaussianBlur stdDeviation="18"/>
<feComposite in2="hardAlpha" operator="arithmetic" k2="-1" k3="1"/>
<feColorMatrix type="matrix" values="0 0 0 0 1 0 0 0 0 1 0 0 0 0 1 0 0 0 0.5 0"/>
<feBlend mode="normal" in2="effect3_innerShadow_4819_611" result="effect4_innerShadow_4819_611"/>
<feColorMatrix in="SourceAlpha" type="matrix" values="0 0 0 0 0 0 0 0 0 0 0 0 0 0 0 0 0 0 127 0" result="hardAlpha"/>
<feOffset/>
<feGaussianBlur stdDeviation="1"/>
<feComposite in2="hardAlpha" operator="arithmetic" k2="-1" k3="1"/>
<feColorMatrix type="matrix" values="0 0 0 0 1 0 0 0 0 1 0 0 0 0 1 0 0 0 1 0"/>
<feBlend mode="normal" in2="effect4_innerShadow_4819_611" result="effect5_innerShadow_4819_611"/>
</filter>
<filter id="filter8_f_4819_611" x="103.636" y="75.3394" width="50.209" height="34.7754" filterUnits="userSpaceOnUse" color-interpolation-filters="sRGB">
<feFlood flood-opacity="0" result="BackgroundImageFix"/>
<feBlend mode="normal" in="SourceGraphic" in2="BackgroundImageFix" result="shape"/>
<feGaussianBlur stdDeviation="5" result="effect1_foregroundBlur_4819_611"/>
</filter>
<filter id="filter9_f_4819_611" x="69.0996" y="112.764" width="39.5957" height="47.335" filterUnits="userSpaceOnUse" color-interpolation-filters="sRGB">
<feFlood flood-opacity="0" result="BackgroundImageFix"/>
<feBlend mode="normal" in="SourceGraphic" in2="BackgroundImageFix" result="shape"/>
<feGaussianBlur stdDeviation="5" result="effect1_foregroundBlur_4819_611"/>
</filter>
<filter id="filter10_f_4819_611" x="69.0127" y="41.0381" width="41.7822" height="45.6279" filterUnits="userSpaceOnUse" color-interpolation-filters="sRGB">
<feFlood flood-opacity="0" result="BackgroundImageFix"/>
<feBlend mode="normal" in="SourceGraphic" in2="BackgroundImageFix" result="shape"/>
<feGaussianBlur stdDeviation="5" result="effect1_foregroundBlur_4819_611"/>
</filter>
<linearGradient id="paint0_linear_4819_611" x1="102" y1="57.396" x2="91.268" y2="124.378" gradientUnits="userSpaceOnUse">
<stop stop-color="#FFF500"/>
<stop offset="1" stop-color="#9DEF6B"/>
</linearGradient>
<linearGradient id="paint1_linear_4819_611" x1="101.982" y1="48.396" x2="89" y2="129.396" gradientUnits="userSpaceOnUse">
<stop stop-color="#FFF500"/>
<stop offset="1" stop-color="#9DEF6B"/>
</linearGradient>
<radialGradient id="paint2_radial_4819_611" cx="0" cy="0" r="1" gradientTransform="matrix(75 79 -36.4591 162.733 58.5 62.396)" gradientUnits="userSpaceOnUse">
<stop stop-color="white"/>
<stop offset="0.464944" stop-color="white" stop-opacity="0"/>
</radialGradient>
<clipPath id="clip0_4819_611">
<rect width="732" height="233" fill="white"/>
</clipPath>
<clipPath id="clip1_4819_611">
<rect x="1.88574" y="24.6108" width="200" height="200" rx="72" fill="white"/>
</clipPath>
<clipPath id="clip2_4819_611">
<rect x="1.88574" y="10.6108" width="200" height="200" rx="72" fill="white"/>
</clipPath>
</defs>
</svg>
