<svg width="883" height="299" viewBox="0 0 883 299" fill="none" xmlns="http://www.w3.org/2000/svg">
<g clip-path="url(#clip0_4819_611)">
<g filter="url(#filter0_f_4819_611)">
<ellipse cx="140.522" cy="155.598" rx="42.3762" ry="60.2578" transform="rotate(-15.8162 140.522 155.598)" fill="#A8FF76"/>
</g>
<g filter="url(#filter1_f_4819_611)">
<ellipse cx="182.5" cy="162" rx="52.5" ry="74" fill="#A8FF76" fill-opacity="0.6"/>
</g>
<g filter="url(#filter2_f_4819_611)">
<ellipse cx="244.469" cy="94.9412" rx="13.8618" ry="66.5" transform="rotate(-39.2265 244.469 94.9412)" fill="#A8FF76" fill-opacity="0.54"/>
</g>
<g filter="url(#filter3_ii_4819_611)">
<g clip-path="url(#clip1_4819_611)">
<rect x="72.8857" y="57.6104" width="200" height="200" rx="72" fill="#F4F4F4"/>
<g filter="url(#filter4_f_4819_611)">
<ellipse cx="45.9635" cy="84.7507" rx="45.9635" ry="84.7507" transform="matrix(-0.830673 0.556761 0.556761 0.830673 115.247 106.61)" fill="#5DFF00"/>
</g>
</g>
</g>
<g filter="url(#filter5_ii_4819_611)">
<g clip-path="url(#clip2_4819_611)">
<rect x="72.8857" y="43.6104" width="200" height="200" rx="72" fill="#F4F4F4"/>
<g filter="url(#filter6_f_4819_611)">
<path d="M233.495 136.396C233.495 205.983 271.69 262.396 202.421 262.396C133.153 262.396 77 205.983 77 136.396C77 66.8076 133.153 10.3955 202.421 10.3955C271.69 10.3955 233.495 66.8076 233.495 136.396Z" fill="#42B600"/>
</g>
<g filter="url(#filter7_f_4819_611)">
<circle cx="118" cy="184.396" r="113" fill="#A8FF76"/>
</g>
<g filter="url(#filter8_f_4819_611)">
<path d="M136 190.896C136 240.877 211.196 281.396 303.954 281.396C396.713 281.396 286.047 240.877 286.047 190.896C286.047 140.914 396.713 100.396 303.954 100.396C211.196 100.396 136 140.914 136 190.896Z" fill="#FFEDBF"/>
</g>
<g filter="url(#filter9_d_4819_611)">
<path d="M201.311 134.675C199.686 134.156 198.034 133.729 196.361 133.395C198.034 133.062 199.686 132.635 201.311 132.115C204.694 131.355 207.859 129.576 210.468 126.968C217.01 120.428 217.874 110.649 212.393 105.17C210.401 103.178 207.732 101.946 204.775 101.631C204.46 98.6752 203.228 96.0074 201.235 94.0154C198.542 91.3232 194.763 90.0646 190.592 90.47C186.527 90.8658 182.562 92.8084 179.429 95.9405C176.82 98.5486 175.041 101.713 174.28 105.094C173.761 106.718 173.333 108.37 173 110.042C172.667 108.37 172.239 106.718 171.72 105.094C170.959 101.713 169.18 98.5486 166.571 95.9405C163.438 92.8084 159.474 90.8658 155.408 90.47C151.238 90.0646 147.458 91.323 144.765 94.0158C142.772 96.0074 141.54 98.674 141.225 101.631C138.268 101.946 135.599 103.178 133.607 105.17C128.126 110.649 128.99 120.428 135.532 126.968C138.141 129.576 141.306 131.355 144.689 132.115C146.314 132.635 147.966 133.062 149.639 133.395C147.966 133.729 146.314 134.156 144.689 134.675C141.306 135.436 138.141 137.214 135.532 139.822C128.99 146.363 128.126 156.142 133.607 161.621C135.6 163.613 138.268 164.845 141.226 165.159C141.541 168.116 142.773 170.783 144.765 172.775C147.458 175.468 151.238 176.727 155.408 176.321C159.474 175.925 163.437 173.982 166.571 170.85C169.18 168.242 170.96 165.078 171.72 161.697C172.24 160.073 172.667 158.421 173 156.749C173.333 158.421 173.761 160.073 174.28 161.697C175.041 165.078 176.82 168.242 179.429 170.85C182.562 173.982 186.526 175.925 190.592 176.321C191.105 176.371 191.612 176.396 192.111 176.396C195.675 176.396 198.874 175.137 201.235 172.775C203.228 170.783 204.46 168.116 204.775 165.159C207.732 164.845 210.401 163.613 212.393 161.621C217.874 156.142 217.01 146.363 210.468 139.822C207.859 137.214 204.694 135.436 201.311 134.675V134.675Z" fill="url(#paint0_linear_4819_611)"/>
</g>
<g filter="url(#filter10_ddiii_4819_611)">
<path d="M207.207 134.943C205.243 134.315 203.246 133.798 201.224 133.395C203.246 132.992 205.243 132.476 207.207 131.848C211.297 130.928 215.123 128.777 218.277 125.623C226.186 117.714 227.231 105.888 220.605 99.2619C218.196 96.8529 214.97 95.3638 211.395 94.9831C211.014 91.4082 209.525 88.1819 207.116 85.7731C203.861 82.5174 199.292 80.9953 194.25 81.4856C189.335 81.9642 184.542 84.3135 180.755 88.1011C177.601 91.255 175.45 95.0812 174.53 99.1709C173.902 101.135 173.385 103.132 172.982 105.154C172.58 103.132 172.063 101.135 171.435 99.1709C170.515 95.0812 168.364 91.255 165.21 88.1011C161.423 84.3135 156.63 81.9642 151.715 81.4856C146.675 80.9953 142.104 82.5171 138.849 85.7735C136.44 88.1819 134.951 91.4067 134.57 94.9831C130.995 95.3638 127.769 96.8529 125.36 99.2619C118.734 105.888 119.779 117.714 127.688 125.623C130.842 128.777 134.668 130.928 138.758 131.848C140.721 132.476 142.719 132.992 144.741 133.395C142.719 133.798 140.721 134.315 138.758 134.943C134.668 135.863 130.842 138.014 127.688 141.168C119.779 149.077 118.734 160.903 125.361 167.529C127.769 169.938 130.995 171.427 134.571 171.808C134.951 175.383 136.441 178.609 138.849 181.018C142.105 184.273 146.674 185.796 151.716 185.305C156.631 184.827 161.422 182.477 165.211 178.69C168.365 175.536 170.516 171.71 171.435 167.62C172.063 165.656 172.58 163.659 172.982 161.637C173.385 163.659 173.902 165.656 174.53 167.62C175.45 171.71 177.601 175.536 180.755 178.69C184.542 182.477 189.334 184.827 194.25 185.305C194.87 185.366 195.482 185.396 196.086 185.396C200.394 185.396 204.261 183.873 207.116 181.018C209.525 178.609 211.014 175.383 211.395 171.808C214.97 171.427 218.196 169.938 220.605 167.529C227.231 160.903 226.186 149.077 218.277 141.168C215.123 138.014 211.297 135.863 207.207 134.943V134.943Z" fill="url(#paint1_linear_4819_611)"/>
<path d="M207.207 134.943C205.243 134.315 203.246 133.798 201.224 133.395C203.246 132.992 205.243 132.476 207.207 131.848C211.297 130.928 215.123 128.777 218.277 125.623C226.186 117.714 227.231 105.888 220.605 99.2619C218.196 96.8529 214.97 95.3638 211.395 94.9831C211.014 91.4082 209.525 88.1819 207.116 85.7731C203.861 82.5174 199.292 80.9953 194.25 81.4856C189.335 81.9642 184.542 84.3135 180.755 88.1011C177.601 91.255 175.45 95.0812 174.53 99.1709C173.902 101.135 173.385 103.132 172.982 105.154C172.58 103.132 172.063 101.135 171.435 99.1709C170.515 95.0812 168.364 91.255 165.21 88.1011C161.423 84.3135 156.63 81.9642 151.715 81.4856C146.675 80.9953 142.104 82.5171 138.849 85.7735C136.44 88.1819 134.951 91.4067 134.57 94.9831C130.995 95.3638 127.769 96.8529 125.36 99.2619C118.734 105.888 119.779 117.714 127.688 125.623C130.842 128.777 134.668 130.928 138.758 131.848C140.721 132.476 142.719 132.992 144.741 133.395C142.719 133.798 140.721 134.315 138.758 134.943C134.668 135.863 130.842 138.014 127.688 141.168C119.779 149.077 118.734 160.903 125.361 167.529C127.769 169.938 130.995 171.427 134.571 171.808C134.951 175.383 136.441 178.609 138.849 181.018C142.105 184.273 146.674 185.796 151.716 185.305C156.631 184.827 161.422 182.477 165.211 178.69C168.365 175.536 170.516 171.71 171.435 167.62C172.063 165.656 172.58 163.659 172.982 161.637C173.385 163.659 173.902 165.656 174.53 167.62C175.45 171.71 177.601 175.536 180.755 178.69C184.542 182.477 189.334 184.827 194.25 185.305C194.87 185.366 195.482 185.396 196.086 185.396C200.394 185.396 204.261 183.873 207.116 181.018C209.525 178.609 211.014 175.383 211.395 171.808C214.97 171.427 218.196 169.938 220.605 167.529C227.231 160.903 226.186 149.077 218.277 141.168C215.123 138.014 211.297 135.863 207.207 134.943V134.943Z" fill="url(#paint2_radial_4819_611)"/>
</g>
<g filter="url(#filter11_f_4819_611)">
<ellipse cx="199.741" cy="125.727" rx="4.72015" ry="16.1367" transform="rotate(68.3913 199.741 125.727)" fill="white"/>
</g>
<g filter="url(#filter12_f_4819_611)">
<ellipse cx="159.898" cy="169.431" rx="4.72015" ry="16.1367" transform="rotate(33.7935 159.898 169.431)" fill="white"/>
</g>
<g filter="url(#filter13_f_4819_611)">
<ellipse cx="160.904" cy="96.8515" rx="4.72015" ry="16.1367" transform="rotate(140.517 160.904 96.8515)" fill="white"/>
</g>
</g>
</g>
<path d="M344.273 197.364C337.121 197.364 330.97 195.848 325.818 192.818C320.697 189.758 316.758 185.515 314 180.091C311.273 174.667 309.909 168.424 309.909 161.364C309.909 154.212 311.288 147.939 314.045 142.545C316.833 137.121 320.788 132.894 325.909 129.864C331.03 126.803 337.121 125.273 344.182 125.273C350.273 125.273 355.606 126.379 360.182 128.591C364.758 130.803 368.379 133.909 371.045 137.909C373.712 141.909 375.182 146.606 375.455 152H357.182C356.667 148.515 355.303 145.712 353.091 143.591C350.909 141.439 348.045 140.364 344.5 140.364C341.5 140.364 338.879 141.182 336.636 142.818C334.424 144.424 332.697 146.773 331.455 149.864C330.212 152.955 329.591 156.697 329.591 161.091C329.591 165.545 330.197 169.333 331.409 172.455C332.652 175.576 334.394 177.955 336.636 179.591C338.879 181.227 341.5 182.045 344.5 182.045C346.712 182.045 348.697 181.591 350.455 180.682C352.242 179.773 353.712 178.455 354.864 176.727C356.045 174.97 356.818 172.864 357.182 170.409H375.455C375.152 175.742 373.697 180.439 371.091 184.5C368.515 188.53 364.955 191.682 360.409 193.955C355.864 196.227 350.485 197.364 344.273 197.364ZM407.216 102.909V196H387.852V102.909H407.216ZM454.273 197.364C447.212 197.364 441.106 195.864 435.955 192.864C430.833 189.833 426.879 185.621 424.091 180.227C421.303 174.803 419.909 168.515 419.909 161.364C419.909 154.152 421.303 147.848 424.091 142.455C426.879 137.03 430.833 132.818 435.955 129.818C441.106 126.788 447.212 125.273 454.273 125.273C461.333 125.273 467.424 126.788 472.545 129.818C477.697 132.818 481.667 137.03 484.455 142.455C487.242 147.848 488.636 154.152 488.636 161.364C488.636 168.515 487.242 174.803 484.455 180.227C481.667 185.621 477.697 189.833 472.545 192.864C467.424 195.864 461.333 197.364 454.273 197.364ZM454.364 182.364C457.576 182.364 460.258 181.455 462.409 179.636C464.561 177.788 466.182 175.273 467.273 172.091C468.394 168.909 468.955 165.288 468.955 161.227C468.955 157.167 468.394 153.545 467.273 150.364C466.182 147.182 464.561 144.667 462.409 142.818C460.258 140.97 457.576 140.045 454.364 140.045C451.121 140.045 448.394 140.97 446.182 142.818C444 144.667 442.348 147.182 441.227 150.364C440.136 153.545 439.591 157.167 439.591 161.227C439.591 165.288 440.136 168.909 441.227 172.091C442.348 175.273 444 177.788 446.182 179.636C448.394 181.455 451.121 182.364 454.364 182.364ZM564.068 126.182L539.659 196H517.841L493.432 126.182H513.886L528.386 176.136H529.114L543.568 126.182H564.068ZM603.545 197.364C596.364 197.364 590.182 195.909 585 193C579.848 190.061 575.879 185.909 573.091 180.545C570.303 175.152 568.909 168.773 568.909 161.409C568.909 154.227 570.303 147.924 573.091 142.5C575.879 137.076 579.803 132.848 584.864 129.818C589.955 126.788 595.924 125.273 602.773 125.273C607.379 125.273 611.667 126.015 615.636 127.5C619.636 128.955 623.121 131.152 626.091 134.091C629.091 137.03 631.424 140.727 633.091 145.182C634.758 149.606 635.591 154.788 635.591 160.727V166.045H576.636V154.045H617.364C617.364 151.258 616.758 148.788 615.545 146.636C614.333 144.485 612.652 142.803 610.5 141.591C608.379 140.348 605.909 139.727 603.091 139.727C600.152 139.727 597.545 140.409 595.273 141.773C593.03 143.106 591.273 144.909 590 147.182C588.727 149.424 588.076 151.924 588.045 154.682V166.091C588.045 169.545 588.682 172.53 589.955 175.045C591.258 177.561 593.091 179.5 595.455 180.864C597.818 182.227 600.621 182.909 603.864 182.909C606.015 182.909 607.985 182.606 609.773 182C611.561 181.394 613.091 180.485 614.364 179.273C615.636 178.061 616.606 176.576 617.273 174.818L635.182 176C634.273 180.303 632.409 184.061 629.591 187.273C626.803 190.455 623.197 192.939 618.773 194.727C614.379 196.485 609.303 197.364 603.545 197.364ZM648.227 196V126.182H667V138.364H667.727C669 134.03 671.136 130.758 674.136 128.545C677.136 126.303 680.591 125.182 684.5 125.182C685.47 125.182 686.515 125.242 687.636 125.364C688.758 125.485 689.742 125.652 690.591 125.864V143.045C689.682 142.773 688.424 142.53 686.818 142.318C685.212 142.106 683.742 142 682.409 142C679.561 142 677.015 142.621 674.773 143.864C672.561 145.076 670.803 146.773 669.5 148.955C668.227 151.136 667.591 153.652 667.591 156.5V196H648.227ZM719.966 102.909V196H700.602V102.909H719.966ZM747.432 222.182C744.977 222.182 742.674 221.985 740.523 221.591C738.402 221.227 736.644 220.758 735.25 220.182L739.614 205.727C741.886 206.424 743.932 206.803 745.75 206.864C747.598 206.924 749.189 206.5 750.523 205.591C751.886 204.682 752.992 203.136 753.841 200.955L754.977 198L729.932 126.182H750.295L764.75 177.455H765.477L780.068 126.182H800.568L773.432 203.545C772.129 207.303 770.356 210.576 768.114 213.364C765.902 216.182 763.098 218.348 759.705 219.864C756.311 221.409 752.22 222.182 747.432 222.182Z" fill="white"/>
</g>
<defs>
<filter id="filter0_f_4819_611" x="-10.4443" y="-10.5288" width="301.934" height="332.254" filterUnits="userSpaceOnUse" color-interpolation-filters="sRGB">
<feFlood flood-opacity="0" result="BackgroundImageFix"/>
<feBlend mode="normal" in="SourceGraphic" in2="BackgroundImageFix" result="shape"/>
<feGaussianBlur stdDeviation="53.5" result="effect1_foregroundBlur_4819_611"/>
</filter>
<filter id="filter1_f_4819_611" x="23" y="-19" width="319" height="362" filterUnits="userSpaceOnUse" color-interpolation-filters="sRGB">
<feFlood flood-opacity="0" result="BackgroundImageFix"/>
<feBlend mode="normal" in="SourceGraphic" in2="BackgroundImageFix" result="shape"/>
<feGaussianBlur stdDeviation="53.5" result="effect1_foregroundBlur_4819_611"/>
</filter>
<filter id="filter2_f_4819_611" x="94.0547" y="-64.3223" width="300.827" height="318.527" filterUnits="userSpaceOnUse" color-interpolation-filters="sRGB">
<feFlood flood-opacity="0" result="BackgroundImageFix"/>
<feBlend mode="normal" in="SourceGraphic" in2="BackgroundImageFix" result="shape"/>
<feGaussianBlur stdDeviation="53.5" result="effect1_foregroundBlur_4819_611"/>
</filter>
<filter id="filter3_ii_4819_611" x="69.8857" y="53.6104" width="206" height="204" filterUnits="userSpaceOnUse" color-interpolation-filters="sRGB">
<feFlood flood-opacity="0" result="BackgroundImageFix"/>
<feBlend mode="normal" in="SourceGraphic" in2="BackgroundImageFix" result="shape"/>
<feColorMatrix in="SourceAlpha" type="matrix" values="0 0 0 0 0 0 0 0 0 0 0 0 0 0 0 0 0 0 127 0" result="hardAlpha"/>
<feOffset dx="-3" dy="-4"/>
<feGaussianBlur stdDeviation="9"/>
<feComposite in2="hardAlpha" operator="arithmetic" k2="-1" k3="1"/>
<feColorMatrix type="matrix" values="0 0 0 0 1 0 0 0 0 0.76425 0 0 0 0 0.4875 0 0 0 0.39 0"/>
<feBlend mode="normal" in2="shape" result="effect1_innerShadow_4819_611"/>
<feColorMatrix in="SourceAlpha" type="matrix" values="0 0 0 0 0 0 0 0 0 0 0 0 0 0 0 0 0 0 127 0" result="hardAlpha"/>
<feOffset dx="3" dy="-2"/>
<feGaussianBlur stdDeviation="6"/>
<feComposite in2="hardAlpha" operator="arithmetic" k2="-1" k3="1"/>
<feColorMatrix type="matrix" values="0 0 0 0 1 0 0 0 0 1 0 0 0 0 1 0 0 0 1 0"/>
<feBlend mode="normal" in2="effect1_innerShadow_4819_611" result="effect2_innerShadow_4819_611"/>
</filter>
<filter id="filter4_f_4819_611" x="-36.4482" y="27.6738" width="321.4" height="349.855" filterUnits="userSpaceOnUse" color-interpolation-filters="sRGB">
<feFlood flood-opacity="0" result="BackgroundImageFix"/>
<feBlend mode="normal" in="SourceGraphic" in2="BackgroundImageFix" result="shape"/>
<feGaussianBlur stdDeviation="50" result="effect1_foregroundBlur_4819_611"/>
</filter>
<filter id="filter5_ii_4819_611" x="69.8857" y="39.6104" width="216" height="208" filterUnits="userSpaceOnUse" color-interpolation-filters="sRGB">
<feFlood flood-opacity="0" result="BackgroundImageFix"/>
<feBlend mode="normal" in="SourceGraphic" in2="BackgroundImageFix" result="shape"/>
<feColorMatrix in="SourceAlpha" type="matrix" values="0 0 0 0 0 0 0 0 0 0 0 0 0 0 0 0 0 0 127 0" result="hardAlpha"/>
<feOffset dx="13" dy="4"/>
<feGaussianBlur stdDeviation="10"/>
<feComposite in2="hardAlpha" operator="arithmetic" k2="-1" k3="1"/>
<feColorMatrix type="matrix" values="0 0 0 0 1 0 0 0 0 1 0 0 0 0 1 0 0 0 0.6 0"/>
<feBlend mode="normal" in2="shape" result="effect1_innerShadow_4819_611"/>
<feColorMatrix in="SourceAlpha" type="matrix" values="0 0 0 0 0 0 0 0 0 0 0 0 0 0 0 0 0 0 127 0" result="hardAlpha"/>
<feOffset dx="-3" dy="-4"/>
<feGaussianBlur stdDeviation="9"/>
<feComposite in2="hardAlpha" operator="arithmetic" k2="-1" k3="1"/>
<feColorMatrix type="matrix" values="0 0 0 0 1 0 0 0 0 1 0 0 0 0 1 0 0 0 0.78 0"/>
<feBlend mode="normal" in2="effect1_innerShadow_4819_611" result="effect2_innerShadow_4819_611"/>
</filter>
<filter id="filter6_f_4819_611" x="-13" y="-79.6045" width="347" height="432" filterUnits="userSpaceOnUse" color-interpolation-filters="sRGB">
<feFlood flood-opacity="0" result="BackgroundImageFix"/>
<feBlend mode="normal" in="SourceGraphic" in2="BackgroundImageFix" result="shape"/>
<feGaussianBlur stdDeviation="45" result="effect1_foregroundBlur_4819_611"/>
</filter>
<filter id="filter7_f_4819_611" x="-85" y="-18.6045" width="406" height="406" filterUnits="userSpaceOnUse" color-interpolation-filters="sRGB">
<feFlood flood-opacity="0" result="BackgroundImageFix"/>
<feBlend mode="normal" in="SourceGraphic" in2="BackgroundImageFix" result="shape"/>
<feGaussianBlur stdDeviation="45" result="effect1_foregroundBlur_4819_611"/>
</filter>
<filter id="filter8_f_4819_611" x="36" y="0.395508" width="405" height="381" filterUnits="userSpaceOnUse" color-interpolation-filters="sRGB">
<feFlood flood-opacity="0" result="BackgroundImageFix"/>
<feBlend mode="normal" in="SourceGraphic" in2="BackgroundImageFix" result="shape"/>
<feGaussianBlur stdDeviation="50" result="effect1_foregroundBlur_4819_611"/>
</filter>
<filter id="filter9_d_4819_611" x="106" y="90.3955" width="134" height="146" filterUnits="userSpaceOnUse" color-interpolation-filters="sRGB">
<feFlood flood-opacity="0" result="BackgroundImageFix"/>
<feColorMatrix in="SourceAlpha" type="matrix" values="0 0 0 0 0 0 0 0 0 0 0 0 0 0 0 0 0 0 127 0" result="hardAlpha"/>
<feOffset dy="36"/>
<feGaussianBlur stdDeviation="12"/>
<feComposite in2="hardAlpha" operator="out"/>
<feColorMatrix type="matrix" values="0 0 0 0 0.357805 0 0 0 0 0.7125 0 0 0 0 0.139531 0 0 0 0.59 0"/>
<feBlend mode="normal" in2="BackgroundImageFix" result="effect1_dropShadow_4819_611"/>
<feBlend mode="normal" in="SourceGraphic" in2="effect1_dropShadow_4819_611" result="shape"/>
</filter>
<filter id="filter10_ddiii_4819_611" x="72" y="32.3955" width="201.965" height="202" filterUnits="userSpaceOnUse" color-interpolation-filters="sRGB">
<feFlood flood-opacity="0" result="BackgroundImageFix"/>
<feColorMatrix in="SourceAlpha" type="matrix" values="0 0 0 0 0 0 0 0 0 0 0 0 0 0 0 0 0 0 127 0" result="hardAlpha"/>
<feOffset/>
<feGaussianBlur stdDeviation="24.5"/>
<feComposite in2="hardAlpha" operator="out"/>
<feColorMatrix type="matrix" values="0 0 0 0 0.356863 0 0 0 0 0.713726 0 0 0 0 0.141176 0 0 0 1 0"/>
<feBlend mode="normal" in2="BackgroundImageFix" result="effect1_dropShadow_4819_611"/>
<feColorMatrix in="SourceAlpha" type="matrix" values="0 0 0 0 0 0 0 0 0 0 0 0 0 0 0 0 0 0 127 0" result="hardAlpha"/>
<feOffset/>
<feGaussianBlur stdDeviation="2"/>
<feComposite in2="hardAlpha" operator="out"/>
<feColorMatrix type="matrix" values="0 0 0 0 0.356863 0 0 0 0 0.713726 0 0 0 0 0.141176 0 0 0 1 0"/>
<feBlend mode="normal" in2="effect1_dropShadow_4819_611" result="effect2_dropShadow_4819_611"/>
<feBlend mode="normal" in="SourceGraphic" in2="effect2_dropShadow_4819_611" result="shape"/>
<feColorMatrix in="SourceAlpha" type="matrix" values="0 0 0 0 0 0 0 0 0 0 0 0 0 0 0 0 0 0 127 0" result="hardAlpha"/>
<feOffset dx="1" dy="-7"/>
<feGaussianBlur stdDeviation="10"/>
<feComposite in2="hardAlpha" operator="arithmetic" k2="-1" k3="1"/>
<feColorMatrix type="matrix" values="0 0 0 0 1 0 0 0 0 1 0 0 0 0 1 0 0 0 1 0"/>
<feBlend mode="normal" in2="shape" result="effect3_innerShadow_4819_611"/>
<feColorMatrix in="SourceAlpha" type="matrix" values="0 0 0 0 0 0 0 0 0 0 0 0 0 0 0 0 0 0 127 0" result="hardAlpha"/>
<feOffset dx="1" dy="23"/>
<feGaussianBlur stdDeviation="18"/>
<feComposite in2="hardAlpha" operator="arithmetic" k2="-1" k3="1"/>
<feColorMatrix type="matrix" values="0 0 0 0 1 0 0 0 0 1 0 0 0 0 1 0 0 0 0.5 0"/>
<feBlend mode="normal" in2="effect3_innerShadow_4819_611" result="effect4_innerShadow_4819_611"/>
<feColorMatrix in="SourceAlpha" type="matrix" values="0 0 0 0 0 0 0 0 0 0 0 0 0 0 0 0 0 0 127 0" result="hardAlpha"/>
<feOffset/>
<feGaussianBlur stdDeviation="1"/>
<feComposite in2="hardAlpha" operator="arithmetic" k2="-1" k3="1"/>
<feColorMatrix type="matrix" values="0 0 0 0 1 0 0 0 0 1 0 0 0 0 1 0 0 0 1 0"/>
<feBlend mode="normal" in2="effect4_innerShadow_4819_611" result="effect5_innerShadow_4819_611"/>
</filter>
<filter id="filter11_f_4819_611" x="174.636" y="108.339" width="50.209" height="34.7754" filterUnits="userSpaceOnUse" color-interpolation-filters="sRGB">
<feFlood flood-opacity="0" result="BackgroundImageFix"/>
<feBlend mode="normal" in="SourceGraphic" in2="BackgroundImageFix" result="shape"/>
<feGaussianBlur stdDeviation="5" result="effect1_foregroundBlur_4819_611"/>
</filter>
<filter id="filter12_f_4819_611" x="140.1" y="145.764" width="39.5957" height="47.335" filterUnits="userSpaceOnUse" color-interpolation-filters="sRGB">
<feFlood flood-opacity="0" result="BackgroundImageFix"/>
<feBlend mode="normal" in="SourceGraphic" in2="BackgroundImageFix" result="shape"/>
<feGaussianBlur stdDeviation="5" result="effect1_foregroundBlur_4819_611"/>
</filter>
<filter id="filter13_f_4819_611" x="140.013" y="74.0376" width="41.7822" height="45.6279" filterUnits="userSpaceOnUse" color-interpolation-filters="sRGB">
<feFlood flood-opacity="0" result="BackgroundImageFix"/>
<feBlend mode="normal" in="SourceGraphic" in2="BackgroundImageFix" result="shape"/>
<feGaussianBlur stdDeviation="5" result="effect1_foregroundBlur_4819_611"/>
</filter>
<linearGradient id="paint0_linear_4819_611" x1="173" y1="90.3955" x2="162.268" y2="157.377" gradientUnits="userSpaceOnUse">
<stop stop-color="#FFF500"/>
<stop offset="1" stop-color="#9DEF6B"/>
</linearGradient>
<linearGradient id="paint1_linear_4819_611" x1="172.982" y1="81.3955" x2="160" y2="162.396" gradientUnits="userSpaceOnUse">
<stop stop-color="#FFF500"/>
<stop offset="1" stop-color="#9DEF6B"/>
</linearGradient>
<radialGradient id="paint2_radial_4819_611" cx="0" cy="0" r="1" gradientTransform="matrix(75 79 -36.4591 162.733 129.5 95.3955)" gradientUnits="userSpaceOnUse">
<stop stop-color="white"/>
<stop offset="0.464944" stop-color="white" stop-opacity="0"/>
</radialGradient>
<clipPath id="clip0_4819_611">
<rect width="883" height="299" fill="white"/>
</clipPath>
<clipPath id="clip1_4819_611">
<rect x="72.8857" y="57.6104" width="200" height="200" rx="72" fill="white"/>
</clipPath>
<clipPath id="clip2_4819_611">
<rect x="72.8857" y="43.6104" width="200" height="200" rx="72" fill="white"/>
</clipPath>
</defs>
</svg>
