<svg width="704" height="174" viewBox="0 0 704 174" fill="none" xmlns="http://www.w3.org/2000/svg">
<g clip-path="url(#clip0_4819_611)">
<g filter="url(#filter0_ii_4819_611)">
<g clip-path="url(#clip1_4819_611)">
<rect width="174" height="174" rx="72" fill="#F4F4F4"/>
<g filter="url(#filter1_f_4819_611)">
<path d="M160.609 92.7852C160.609 162.373 198.804 218.785 129.536 218.785C60.2673 218.785 4.11426 162.373 4.11426 92.7852C4.11426 23.1973 60.2673 -33.2148 129.536 -33.2148C198.804 -33.2148 160.609 23.1973 160.609 92.7852Z" fill="#42B600"/>
</g>
<g filter="url(#filter2_f_4819_611)">
<circle cx="45.1143" cy="140.785" r="113" fill="#A8FF76"/>
</g>
<g filter="url(#filter3_f_4819_611)">
<path d="M63.1143 147.285C63.1143 197.267 138.31 237.785 231.068 237.785C323.827 237.785 213.162 197.267 213.162 147.285C213.162 97.3034 323.827 56.7852 231.068 56.7852C138.31 56.7852 63.1143 97.3034 63.1143 147.285Z" fill="#FFEDBF"/>
</g>
<g filter="url(#filter4_d_4819_611)">
<path d="M111.73 88.3535C110.317 87.9016 108.879 87.5299 107.424 87.24C108.879 86.9501 110.317 86.5784 111.73 86.1265C114.673 85.4649 117.427 83.9175 119.696 81.6485C125.388 75.9581 126.14 67.4504 121.372 62.6836C119.638 60.9505 117.317 59.8792 114.743 59.6053C114.47 57.0334 113.398 54.7124 111.664 52.9794C109.321 50.6372 106.033 49.5422 102.405 49.8949C98.8677 50.2392 95.4186 51.9293 92.6929 54.6542C90.4229 56.9232 88.8749 59.6759 88.2134 62.6181C87.7612 64.0308 87.3893 65.4679 87.0995 66.9225C86.8096 65.4679 86.4377 64.0308 85.9855 62.6181C85.324 59.6759 83.776 56.9232 81.506 54.6542C78.7803 51.9293 75.3315 50.2392 71.7942 49.8949C68.1668 49.5422 64.8776 50.637 62.5346 52.9797C60.8012 54.7124 59.7294 57.0324 59.4554 59.6053C56.8827 59.8792 54.5609 60.9505 52.8271 62.6836C48.0587 67.4504 48.8104 75.9581 54.5025 81.6485C56.7723 83.9175 59.5259 85.4649 62.4689 86.1265C63.8823 86.5784 65.32 86.9501 66.7752 87.24C65.32 87.5299 63.8823 87.9016 62.4689 88.3535C59.5259 89.015 56.7723 90.5625 54.5025 92.8315C48.8104 98.5219 48.0587 107.03 52.8276 111.796C54.5612 113.53 56.8827 114.601 59.4559 114.875C59.7298 117.447 60.8017 119.768 62.5351 121.501C64.8781 123.843 68.1662 124.938 71.7947 124.585C75.3316 124.241 78.78 122.551 81.5065 119.826C83.7764 117.557 85.3244 114.804 85.986 111.862C86.438 110.449 86.8097 109.012 87.0995 107.558C87.3893 109.012 87.7612 110.449 88.2134 111.862C88.8749 114.804 90.4229 117.557 92.6929 119.826C95.4186 122.551 98.8674 124.241 102.405 124.585C102.851 124.629 103.292 124.65 103.726 124.65C106.827 124.65 109.609 123.555 111.664 121.501C113.398 119.768 114.47 117.447 114.743 114.875C117.316 114.601 119.638 113.53 121.372 111.796C126.14 107.03 125.388 98.5219 119.696 92.8315C117.426 90.5625 114.673 89.015 111.73 88.3535V88.3535Z" fill="url(#paint0_linear_4819_611)"/>
</g>
<g filter="url(#filter5_ddiii_4819_611)">
<path d="M116.86 88.5865C115.151 88.04 113.413 87.5904 111.654 87.2399C113.413 86.8894 115.151 86.4398 116.86 85.8933C120.418 85.0933 123.746 83.222 126.49 80.4781C133.371 73.5967 134.28 63.3083 128.516 57.5438C126.42 55.4479 123.614 54.1524 120.503 53.8212C120.172 50.7111 118.876 47.9042 116.78 45.8085C113.948 42.976 109.973 41.6518 105.586 42.0784C101.311 42.4948 97.141 44.5386 93.8459 47.8339C91.1018 50.5778 89.2305 53.9066 88.4307 57.4646C87.8841 59.1729 87.4345 60.9108 87.0841 62.6699C86.7337 60.9108 86.2841 59.1729 85.7375 57.4646C84.9377 53.9066 83.0663 50.5778 80.3222 47.8339C77.0272 44.5386 72.8579 42.4948 68.5817 42.0784C64.1966 41.6518 60.2203 42.9758 57.3878 45.8089C55.2923 47.9042 53.9966 50.7097 53.6654 53.8212C50.5552 54.1524 47.7484 55.4479 45.6525 57.5438C39.888 63.3083 40.7967 73.5967 47.6779 80.4781C50.4218 83.222 53.7506 85.0933 57.3084 85.8933C59.017 86.4398 60.755 86.8894 62.5143 87.2399C60.755 87.5904 59.017 88.04 57.3084 88.5865C53.7506 89.3865 50.4218 91.2578 47.6779 94.0017C40.7967 100.883 39.888 111.171 45.6531 116.936C47.7488 119.032 50.5552 120.327 53.666 120.659C53.9971 123.769 55.2929 126.576 57.3883 128.671C60.2208 131.504 64.1958 132.829 68.5823 132.401C72.8581 131.985 77.0268 129.941 80.3228 126.646C83.0669 123.902 84.9383 120.573 85.7381 117.015C86.2844 115.307 86.7338 113.569 87.0841 111.81C87.4345 113.569 87.8841 115.307 88.4307 117.015C89.2305 120.573 91.1018 123.902 93.8459 126.646C97.141 129.941 101.31 131.985 105.586 132.401C106.126 132.454 106.659 132.48 107.184 132.48C110.933 132.48 114.296 131.155 116.78 128.671C118.876 126.576 120.172 123.769 120.503 120.659C123.613 120.327 126.42 119.032 128.516 116.936C134.28 111.171 133.371 100.883 126.49 94.0017C123.746 91.2578 120.418 89.3865 116.86 88.5865V88.5865Z" fill="url(#paint1_linear_4819_611)"/>
<path d="M116.86 88.5865C115.151 88.04 113.413 87.5904 111.654 87.2399C113.413 86.8894 115.151 86.4398 116.86 85.8933C120.418 85.0933 123.746 83.222 126.49 80.4781C133.371 73.5967 134.28 63.3083 128.516 57.5438C126.42 55.4479 123.614 54.1524 120.503 53.8212C120.172 50.7111 118.876 47.9042 116.78 45.8085C113.948 42.976 109.973 41.6518 105.586 42.0784C101.311 42.4948 97.141 44.5386 93.8459 47.8339C91.1018 50.5778 89.2305 53.9066 88.4307 57.4646C87.8841 59.1729 87.4345 60.9108 87.0841 62.6699C86.7337 60.9108 86.2841 59.1729 85.7375 57.4646C84.9377 53.9066 83.0663 50.5778 80.3222 47.8339C77.0272 44.5386 72.8579 42.4948 68.5817 42.0784C64.1966 41.6518 60.2203 42.9758 57.3878 45.8089C55.2923 47.9042 53.9966 50.7097 53.6654 53.8212C50.5552 54.1524 47.7484 55.4479 45.6525 57.5438C39.888 63.3083 40.7967 73.5967 47.6779 80.4781C50.4218 83.222 53.7506 85.0933 57.3084 85.8933C59.017 86.4398 60.755 86.8894 62.5143 87.2399C60.755 87.5904 59.017 88.04 57.3084 88.5865C53.7506 89.3865 50.4218 91.2578 47.6779 94.0017C40.7967 100.883 39.888 111.171 45.6531 116.936C47.7488 119.032 50.5552 120.327 53.666 120.659C53.9971 123.769 55.2929 126.576 57.3883 128.671C60.2208 131.504 64.1958 132.829 68.5823 132.401C72.8581 131.985 77.0268 129.941 80.3228 126.646C83.0669 123.902 84.9383 120.573 85.7381 117.015C86.2844 115.307 86.7338 113.569 87.0841 111.81C87.4345 113.569 87.8841 115.307 88.4307 117.015C89.2305 120.573 91.1018 123.902 93.8459 126.646C97.141 129.941 101.31 131.985 105.586 132.401C106.126 132.454 106.659 132.48 107.184 132.48C110.933 132.48 114.296 131.155 116.78 128.671C118.876 126.576 120.172 123.769 120.503 120.659C123.613 120.327 126.42 119.032 128.516 116.936C134.28 111.171 133.371 100.883 126.49 94.0017C123.746 91.2578 120.418 89.3865 116.86 88.5865V88.5865Z" fill="url(#paint2_radial_4819_611)"/>
</g>
<g filter="url(#filter6_f_4819_611)">
<ellipse cx="88.0182" cy="62.3681" rx="4.72015" ry="16.1367" transform="rotate(140.517 88.0182 62.3681)" fill="white"/>
</g>
</g>
</g>
<path d="M245.273 134.864C238.121 134.864 231.97 133.348 226.818 130.318C221.697 127.258 217.758 123.015 215 117.591C212.273 112.167 210.909 105.924 210.909 98.8636C210.909 91.7121 212.288 85.4394 215.045 80.0455C217.833 74.6212 221.788 70.3939 226.909 67.3636C232.03 64.303 238.121 62.7727 245.182 62.7727C251.273 62.7727 256.606 63.8788 261.182 66.0909C265.758 68.303 269.379 71.4091 272.045 75.4091C274.712 79.4091 276.182 84.1061 276.455 89.5H258.182C257.667 86.0151 256.303 83.2121 254.091 81.0909C251.909 78.9394 249.045 77.8636 245.5 77.8636C242.5 77.8636 239.879 78.6818 237.636 80.3182C235.424 81.9242 233.697 84.2727 232.455 87.3636C231.212 90.4545 230.591 94.197 230.591 98.5909C230.591 103.045 231.197 106.833 232.409 109.955C233.652 113.076 235.394 115.455 237.636 117.091C239.879 118.727 242.5 119.545 245.5 119.545C247.712 119.545 249.697 119.091 251.455 118.182C253.242 117.273 254.712 115.955 255.864 114.227C257.045 112.47 257.818 110.364 258.182 107.909H276.455C276.152 113.242 274.697 117.939 272.091 122C269.515 126.03 265.955 129.182 261.409 131.455C256.864 133.727 251.485 134.864 245.273 134.864ZM308.216 40.4091V133.5H288.852V40.4091H308.216ZM355.273 134.864C348.212 134.864 342.106 133.364 336.955 130.364C331.833 127.333 327.879 123.121 325.091 117.727C322.303 112.303 320.909 106.015 320.909 98.8636C320.909 91.6515 322.303 85.3485 325.091 79.9545C327.879 74.5303 331.833 70.3182 336.955 67.3182C342.106 64.2879 348.212 62.7727 355.273 62.7727C362.333 62.7727 368.424 64.2879 373.545 67.3182C378.697 70.3182 382.667 74.5303 385.455 79.9545C388.242 85.3485 389.636 91.6515 389.636 98.8636C389.636 106.015 388.242 112.303 385.455 117.727C382.667 123.121 378.697 127.333 373.545 130.364C368.424 133.364 362.333 134.864 355.273 134.864ZM355.364 119.864C358.576 119.864 361.258 118.955 363.409 117.136C365.561 115.288 367.182 112.773 368.273 109.591C369.394 106.409 369.955 102.788 369.955 98.7273C369.955 94.6667 369.394 91.0455 368.273 87.8636C367.182 84.6818 365.561 82.1667 363.409 80.3182C361.258 78.4697 358.576 77.5455 355.364 77.5455C352.121 77.5455 349.394 78.4697 347.182 80.3182C345 82.1667 343.348 84.6818 342.227 87.8636C341.136 91.0455 340.591 94.6667 340.591 98.7273C340.591 102.788 341.136 106.409 342.227 109.591C343.348 112.773 345 115.288 347.182 117.136C349.394 118.955 352.121 119.864 355.364 119.864ZM465.068 63.6818L440.659 133.5H418.841L394.432 63.6818H414.886L429.386 113.636H430.114L444.568 63.6818H465.068ZM504.545 134.864C497.364 134.864 491.182 133.409 486 130.5C480.848 127.561 476.879 123.409 474.091 118.045C471.303 112.652 469.909 106.273 469.909 98.9091C469.909 91.7273 471.303 85.4242 474.091 80C476.879 74.5758 480.803 70.3485 485.864 67.3182C490.955 64.2879 496.924 62.7727 503.773 62.7727C508.379 62.7727 512.667 63.5152 516.636 65C520.636 66.4545 524.121 68.6515 527.091 71.5909C530.091 74.5303 532.424 78.2273 534.091 82.6818C535.758 87.1061 536.591 92.2879 536.591 98.2273V103.545H477.636V91.5455H518.364C518.364 88.7576 517.758 86.2879 516.545 84.1364C515.333 81.9848 513.652 80.303 511.5 79.0909C509.379 77.8485 506.909 77.2273 504.091 77.2273C501.152 77.2273 498.545 77.9091 496.273 79.2727C494.03 80.6061 492.273 82.4091 491 84.6818C489.727 86.9242 489.076 89.4242 489.045 92.1818V103.591C489.045 107.045 489.682 110.03 490.955 112.545C492.258 115.061 494.091 117 496.455 118.364C498.818 119.727 501.621 120.409 504.864 120.409C507.015 120.409 508.985 120.106 510.773 119.5C512.561 118.894 514.091 117.985 515.364 116.773C516.636 115.561 517.606 114.076 518.273 112.318L536.182 113.5C535.273 117.803 533.409 121.561 530.591 124.773C527.803 127.955 524.197 130.439 519.773 132.227C515.379 133.985 510.303 134.864 504.545 134.864ZM549.227 133.5V63.6818H568V75.8636H568.727C570 71.5303 572.136 68.2576 575.136 66.0455C578.136 63.803 581.591 62.6818 585.5 62.6818C586.47 62.6818 587.515 62.7424 588.636 62.8636C589.758 62.9848 590.742 63.1515 591.591 63.3636V80.5455C590.682 80.2727 589.424 80.0303 587.818 79.8182C586.212 79.6061 584.742 79.5 583.409 79.5C580.561 79.5 578.015 80.1212 575.773 81.3636C573.561 82.5758 571.803 84.2727 570.5 86.4545C569.227 88.6364 568.591 91.1515 568.591 94V133.5H549.227ZM620.966 40.4091V133.5H601.602V40.4091H620.966ZM648.432 159.682C645.977 159.682 643.674 159.485 641.523 159.091C639.402 158.727 637.644 158.258 636.25 157.682L640.614 143.227C642.886 143.924 644.932 144.303 646.75 144.364C648.598 144.424 650.189 144 651.523 143.091C652.886 142.182 653.992 140.636 654.841 138.455L655.977 135.5L630.932 63.6818H651.295L665.75 114.955H666.477L681.068 63.6818H701.568L674.432 141.045C673.129 144.803 671.356 148.076 669.114 150.864C666.902 153.682 664.098 155.848 660.705 157.364C657.311 158.909 653.22 159.682 648.432 159.682Z" fill="white"/>
</g>
<defs>
<filter id="filter0_ii_4819_611" x="-3" y="-4" width="190" height="182" filterUnits="userSpaceOnUse" color-interpolation-filters="sRGB">
<feFlood flood-opacity="0" result="BackgroundImageFix"/>
<feBlend mode="normal" in="SourceGraphic" in2="BackgroundImageFix" result="shape"/>
<feColorMatrix in="SourceAlpha" type="matrix" values="0 0 0 0 0 0 0 0 0 0 0 0 0 0 0 0 0 0 127 0" result="hardAlpha"/>
<feOffset dx="13" dy="4"/>
<feGaussianBlur stdDeviation="10"/>
<feComposite in2="hardAlpha" operator="arithmetic" k2="-1" k3="1"/>
<feColorMatrix type="matrix" values="0 0 0 0 1 0 0 0 0 1 0 0 0 0 1 0 0 0 0.6 0"/>
<feBlend mode="normal" in2="shape" result="effect1_innerShadow_4819_611"/>
<feColorMatrix in="SourceAlpha" type="matrix" values="0 0 0 0 0 0 0 0 0 0 0 0 0 0 0 0 0 0 127 0" result="hardAlpha"/>
<feOffset dx="-3" dy="-4"/>
<feGaussianBlur stdDeviation="9"/>
<feComposite in2="hardAlpha" operator="arithmetic" k2="-1" k3="1"/>
<feColorMatrix type="matrix" values="0 0 0 0 1 0 0 0 0 1 0 0 0 0 1 0 0 0 0.78 0"/>
<feBlend mode="normal" in2="effect1_innerShadow_4819_611" result="effect2_innerShadow_4819_611"/>
</filter>
<filter id="filter1_f_4819_611" x="-85.8857" y="-123.215" width="347" height="432" filterUnits="userSpaceOnUse" color-interpolation-filters="sRGB">
<feFlood flood-opacity="0" result="BackgroundImageFix"/>
<feBlend mode="normal" in="SourceGraphic" in2="BackgroundImageFix" result="shape"/>
<feGaussianBlur stdDeviation="45" result="effect1_foregroundBlur_4819_611"/>
</filter>
<filter id="filter2_f_4819_611" x="-157.886" y="-62.2148" width="406" height="406" filterUnits="userSpaceOnUse" color-interpolation-filters="sRGB">
<feFlood flood-opacity="0" result="BackgroundImageFix"/>
<feBlend mode="normal" in="SourceGraphic" in2="BackgroundImageFix" result="shape"/>
<feGaussianBlur stdDeviation="45" result="effect1_foregroundBlur_4819_611"/>
</filter>
<filter id="filter3_f_4819_611" x="-36.8857" y="-43.2148" width="405" height="381" filterUnits="userSpaceOnUse" color-interpolation-filters="sRGB">
<feFlood flood-opacity="0" result="BackgroundImageFix"/>
<feBlend mode="normal" in="SourceGraphic" in2="BackgroundImageFix" result="shape"/>
<feGaussianBlur stdDeviation="50" result="effect1_foregroundBlur_4819_611"/>
</filter>
<filter id="filter4_d_4819_611" x="25.6895" y="49.8301" width="122.82" height="134.82" filterUnits="userSpaceOnUse" color-interpolation-filters="sRGB">
<feFlood flood-opacity="0" result="BackgroundImageFix"/>
<feColorMatrix in="SourceAlpha" type="matrix" values="0 0 0 0 0 0 0 0 0 0 0 0 0 0 0 0 0 0 127 0" result="hardAlpha"/>
<feOffset dy="36"/>
<feGaussianBlur stdDeviation="12"/>
<feComposite in2="hardAlpha" operator="out"/>
<feColorMatrix type="matrix" values="0 0 0 0 0.357805 0 0 0 0 0.7125 0 0 0 0 0.139531 0 0 0 0.59 0"/>
<feBlend mode="normal" in2="BackgroundImageFix" result="effect1_dropShadow_4819_611"/>
<feBlend mode="normal" in="SourceGraphic" in2="effect1_dropShadow_4819_611" result="shape"/>
</filter>
<filter id="filter5_ddiii_4819_611" x="-7.14062" y="-7" width="188.449" height="188.48" filterUnits="userSpaceOnUse" color-interpolation-filters="sRGB">
<feFlood flood-opacity="0" result="BackgroundImageFix"/>
<feColorMatrix in="SourceAlpha" type="matrix" values="0 0 0 0 0 0 0 0 0 0 0 0 0 0 0 0 0 0 127 0" result="hardAlpha"/>
<feOffset/>
<feGaussianBlur stdDeviation="24.5"/>
<feComposite in2="hardAlpha" operator="out"/>
<feColorMatrix type="matrix" values="0 0 0 0 0.356863 0 0 0 0 0.713726 0 0 0 0 0.141176 0 0 0 1 0"/>
<feBlend mode="normal" in2="BackgroundImageFix" result="effect1_dropShadow_4819_611"/>
<feColorMatrix in="SourceAlpha" type="matrix" values="0 0 0 0 0 0 0 0 0 0 0 0 0 0 0 0 0 0 127 0" result="hardAlpha"/>
<feOffset/>
<feGaussianBlur stdDeviation="2"/>
<feComposite in2="hardAlpha" operator="out"/>
<feColorMatrix type="matrix" values="0 0 0 0 0.356863 0 0 0 0 0.713726 0 0 0 0 0.141176 0 0 0 1 0"/>
<feBlend mode="normal" in2="effect1_dropShadow_4819_611" result="effect2_dropShadow_4819_611"/>
<feBlend mode="normal" in="SourceGraphic" in2="effect2_dropShadow_4819_611" result="shape"/>
<feColorMatrix in="SourceAlpha" type="matrix" values="0 0 0 0 0 0 0 0 0 0 0 0 0 0 0 0 0 0 127 0" result="hardAlpha"/>
<feOffset dx="1" dy="-7"/>
<feGaussianBlur stdDeviation="10"/>
<feComposite in2="hardAlpha" operator="arithmetic" k2="-1" k3="1"/>
<feColorMatrix type="matrix" values="0 0 0 0 1 0 0 0 0 1 0 0 0 0 1 0 0 0 1 0"/>
<feBlend mode="normal" in2="shape" result="effect3_innerShadow_4819_611"/>
<feColorMatrix in="SourceAlpha" type="matrix" values="0 0 0 0 0 0 0 0 0 0 0 0 0 0 0 0 0 0 127 0" result="hardAlpha"/>
<feOffset dx="1" dy="23"/>
<feGaussianBlur stdDeviation="18"/>
<feComposite in2="hardAlpha" operator="arithmetic" k2="-1" k3="1"/>
<feColorMatrix type="matrix" values="0 0 0 0 1 0 0 0 0 1 0 0 0 0 1 0 0 0 0.5 0"/>
<feBlend mode="normal" in2="effect3_innerShadow_4819_611" result="effect4_innerShadow_4819_611"/>
<feColorMatrix in="SourceAlpha" type="matrix" values="0 0 0 0 0 0 0 0 0 0 0 0 0 0 0 0 0 0 127 0" result="hardAlpha"/>
<feOffset/>
<feGaussianBlur stdDeviation="1"/>
<feComposite in2="hardAlpha" operator="arithmetic" k2="-1" k3="1"/>
<feColorMatrix type="matrix" values="0 0 0 0 1 0 0 0 0 1 0 0 0 0 1 0 0 0 1 0"/>
<feBlend mode="normal" in2="effect4_innerShadow_4819_611" result="effect5_innerShadow_4819_611"/>
</filter>
<filter id="filter6_f_4819_611" x="67.127" y="39.5542" width="41.7822" height="45.6279" filterUnits="userSpaceOnUse" color-interpolation-filters="sRGB">
<feFlood flood-opacity="0" result="BackgroundImageFix"/>
<feBlend mode="normal" in="SourceGraphic" in2="BackgroundImageFix" result="shape"/>
<feGaussianBlur stdDeviation="5" result="effect1_foregroundBlur_4819_611"/>
</filter>
<linearGradient id="paint0_linear_4819_611" x1="87.0995" y1="49.8301" x2="77.7626" y2="108.104" gradientUnits="userSpaceOnUse">
<stop stop-color="#FFF500"/>
<stop offset="1" stop-color="#9DEF6B"/>
</linearGradient>
<linearGradient id="paint1_linear_4819_611" x1="87.0841" y1="42" x2="75.7894" y2="112.47" gradientUnits="userSpaceOnUse">
<stop stop-color="#FFF500"/>
<stop offset="1" stop-color="#9DEF6B"/>
</linearGradient>
<radialGradient id="paint2_radial_4819_611" cx="0" cy="0" r="1" gradientTransform="matrix(65.25 68.73 -31.7194 141.578 49.2544 54.18)" gradientUnits="userSpaceOnUse">
<stop stop-color="white"/>
<stop offset="0.464944" stop-color="white" stop-opacity="0"/>
</radialGradient>
<clipPath id="clip0_4819_611">
<rect width="704" height="174" fill="white"/>
</clipPath>
<clipPath id="clip1_4819_611">
<rect width="174" height="174" rx="72" fill="white"/>
</clipPath>
</defs>
</svg>
